<svg
 xmlns="http://www.w3.org/2000/svg"
 xmlns:xlink="http://www.w3.org/1999/xlink"
 width="9px" height="18px">
<path fill-rule="evenodd"  fill="rgb(255, 255, 255)"
 d="M8.001,0.304 C8.001,1.286 8.001,3.045 8.001,3.045 C8.001,3.045 5.981,2.843 5.475,3.618 C5.199,4.041 5.363,5.280 5.339,6.169 C6.220,6.169 7.136,6.169 8.018,6.169 C7.791,7.210 7.629,7.915 7.463,8.815 C6.700,8.815 5.324,8.815 5.324,8.815 L5.324,17.330 C5.324,17.330 2.799,17.330 1.612,17.330 C1.613,14.704 1.611,11.642 1.612,8.849 C1.035,8.849 0.609,8.849 0.032,8.849 C0.032,7.867 0.032,7.151 0.032,6.169 C0.592,6.169 1.035,6.169 1.594,6.169 C1.674,4.210 1.705,2.270 2.677,1.282 C3.771,0.171 4.814,0.304 8.001,0.304 Z"/>
</svg>