<svg
 xmlns="http://www.w3.org/2000/svg"
 xmlns:xlink="http://www.w3.org/1999/xlink"
 width="20px" height="17px">
<path fill-rule="evenodd"  fill="rgb(255, 255, 255)"
 d="M13.506,0.265 C15.052,0.237 15.875,0.801 16.661,1.517 C17.328,1.460 18.195,1.087 18.706,0.828 C18.871,0.738 19.037,0.647 19.202,0.556 C18.911,1.344 18.515,1.961 17.907,2.430 C17.772,2.534 17.638,2.674 17.469,2.740 C17.469,2.744 17.469,2.747 17.469,2.750 C18.335,2.741 19.050,2.350 19.728,2.138 C19.728,2.142 19.728,2.145 19.728,2.148 C19.372,2.715 18.889,3.289 18.375,3.702 C18.167,3.867 17.959,4.032 17.751,4.197 C17.763,5.114 17.738,5.989 17.566,6.760 C16.569,11.240 13.928,14.282 9.747,15.585 C8.245,16.053 5.819,16.245 4.099,15.818 C3.246,15.606 2.475,15.367 1.752,15.051 C1.350,14.875 0.978,14.685 0.623,14.468 C0.506,14.397 0.389,14.326 0.272,14.255 C0.660,14.266 1.114,14.373 1.548,14.304 C1.940,14.240 2.325,14.256 2.687,14.177 C3.590,13.979 4.392,13.717 5.083,13.313 C5.417,13.117 5.925,12.887 6.163,12.604 C5.715,12.612 5.309,12.508 4.975,12.391 C3.684,11.935 2.933,11.097 2.444,9.837 C2.835,9.880 3.962,9.982 4.226,9.760 C3.733,9.732 3.259,9.447 2.921,9.236 C1.882,8.585 1.035,7.495 1.041,5.818 C1.178,5.883 1.314,5.948 1.450,6.012 C1.711,6.122 1.976,6.181 2.288,6.245 C2.419,6.272 2.682,6.350 2.833,6.294 C2.827,6.294 2.820,6.294 2.814,6.294 C2.613,6.060 2.285,5.904 2.083,5.653 C1.417,4.825 0.792,3.550 1.187,2.032 C1.288,1.646 1.447,1.306 1.616,0.993 C1.622,0.996 1.629,0.999 1.635,1.002 C1.713,1.165 1.886,1.284 1.996,1.420 C2.336,1.842 2.756,2.221 3.184,2.556 C4.641,3.696 5.954,4.396 8.062,4.915 C8.597,5.046 9.215,5.147 9.854,5.148 C9.675,4.625 9.732,3.780 9.873,3.274 C10.229,2.003 11.000,1.086 12.133,0.595 C12.403,0.478 12.704,0.392 13.019,0.323 C13.181,0.304 13.343,0.284 13.506,0.265 Z"/>
</svg>